<?xml version="1.0" encoding="UTF-8"?>
<svg width="192px" height="214px" viewBox="0 0 192 214" version="1.1" xmlns="http://www.w3.org/2000/svg" xmlns:xlink="http://www.w3.org/1999/xlink">
    <!-- Generator: Sketch 3.8.3 (29802) - http://www.bohemiancoding.com/sketch -->
    <title>Group</title>
    <desc>Created with Sketch.</desc>
    <defs></defs>
    <g id="Page-1" stroke="none" stroke-width="1" fill="none" fill-rule="evenodd">
        <g id="Group" transform="translate(2.000000, 2.000000)">
            <path d="M93.9516372,39.8592416 C105.273475,39.8592416 114.451637,31.1287942 114.451637,20.3592416 C114.451637,9.58968896 105.273475,0.859241581 93.9516372,0.859241581 C82.6297998,0.859241581 73.4516372,9.58968896 73.4516372,20.3592416 C73.4516372,31.1287942 82.6297998,39.8592416 93.9516372,39.8592416 Z M150.365189,72.4296208 C156.026107,82.2346196 168.175978,85.8179179 177.502684,80.4331416 C186.82939,75.0483653 189.801098,62.7346196 184.14018,52.9296208 C178.479261,43.124622 166.32939,39.5413237 157.002684,44.9261 C147.675978,50.3108763 144.70427,62.624622 150.365189,72.4296208 Z M150.365189,137.570379 C144.70427,147.375378 147.675978,159.689124 157.002684,165.0739 C166.32939,170.458676 178.479261,166.875378 184.14018,157.070379 C189.801098,147.26538 186.82939,134.951635 177.502684,129.566858 C168.175978,124.182082 156.026107,127.76538 150.365189,137.570379 Z M93.9516372,170.140758 C82.6297998,170.140758 73.4516372,178.871206 73.4516372,189.640758 C73.4516372,200.410311 82.6297998,209.140758 93.9516372,209.140758 C105.273475,209.140758 114.451637,200.410311 114.451637,189.640758 C114.451637,178.871206 105.273475,170.140758 93.9516372,170.140758 Z M37.5380856,137.570379 C31.8771669,127.76538 19.7272963,124.182082 10.4005902,129.566858 C1.07388403,134.951635 -1.89782387,147.26538 3.76309481,157.070379 C9.4240135,166.875378 21.573884,170.458676 30.9005902,165.0739 C40.2272963,159.689124 43.1990042,147.375378 37.5380856,137.570379 Z M37.5380856,72.4296208 C43.1990042,62.624622 40.2272963,50.3108763 30.9005902,44.9261 C21.573884,39.5413237 9.4240135,43.124622 3.76309481,52.9296208 C-1.89782387,62.7346196 1.07388403,75.0483653 10.4005902,80.4331416 C19.7272963,85.8179179 31.8771669,82.2346196 37.5380856,72.4296208 Z" id="Oval-1" stroke="#FDA108" stroke-width="5" fill="#EEDC0E"></path>
            <ellipse id="Oval-7" stroke="#FDA109" stroke-width="4" fill="#EEDC0F" cx="94.5" cy="105" rx="37.5" ry="37"></ellipse>
        </g>
    </g>
</svg>